<?xml version="1.0" encoding="UTF-8"?><svg xmlns="http://www.w3.org/2000/svg" xmlns:xlink="http://www.w3.org/1999/xlink" width="902" height="62" viewBox="-0.5 -0.5 902 62" ><style><![CDATA[.B{pointer-events:all}.C{fill:#fff}.D{stroke:#000}.E{fill:#000}.F{font-family:Helvetica}.G{font-size:16px}.H{text-anchor:middle}.I{pointer-events:stroke}.J{stroke-miterlimit:10}]]></style><path d="M0 0h120v60H0z" class="B C D"/><text x="59.5" y="34.5" class="E F G H">FROM</text><g class="D"><g class="J"><path d="M276 30q0 0 28.13 0" fill="none" class="I"/><use xlink:href="#B" class="B"/></g><path d="M156 0h120v60H156z" class="B C"/></g><text x="215.5" y="34.5" class="E F G H">WHERE</text><g class="D"><g class="J"><path d="M120 30q0 0 28.13 0" fill="none" class="I"/><use xlink:href="#B" x="-156" class="B"/></g><path d="M468 0h120v60H468z" class="B C"/></g><text x="527.5" y="34.5" class="E F G H">SELECT</text><g class="D"><g class="J"><path d="M745 30q0 0 28.13 0" fill="none" class="I"/><use xlink:href="#B" x="469" class="B"/></g><path d="M625 0h120v60H625z" class="B C"/></g><text x="684.5" y="34.5" class="E F G H">ORDER BY</text><g class="D"><g class="J"><path d="M588 30q0 0 29.13 0" fill="none" class="I"/><use xlink:href="#B" x="313" class="B"/><path d="M432 30q0 0 28.13 0" fill="none" class="I"/><use xlink:href="#B" x="156" class="B"/></g><path d="M312 0h120v60H312z" class="B C"/></g><text x="371.5" y="34.5" class="E F G H">DISTINCT</text><path d="M781 0h120v60H781z" class="B C D"/><text x="840.5" y="34.5" class="E F G H">LIMIT</text><defs ><path id="B" d="M310.88 30l-9 4.5 2.25-4.5-2.25-4.5z"/></defs></svg>